<?xml version="1.0" encoding="utf-8"?>
<!-- Generator: Adobe Illustrator 19.0.0, SVG Export Plug-In . SVG Version: 6.00 Build 0)  -->
<svg version="1.1" xmlns="http://www.w3.org/2000/svg" xmlns:xlink="http://www.w3.org/1999/xlink" x="0px" y="0px"
	 viewBox="0 0 191 74.4" style="enable-background:new 0 0 191 74.4;" xml:space="preserve">
<style type="text/css">
	.st0{fill:#525B5F;}
	.st1{fill:#4F772D;}
</style>
<g id="圖層_2">
</g>
<g id="圖層_1">
	<path id="XMLID_29_" class="st0" d="M94.3,21c2.7,0.9,4,1.8,4,2.7l-1.1,2.2l-1.8-0.3l-6.9,0.3c-0.5,0.1-0.8,0.3-0.8,0.7
		c1.7-0.1,3,0.5,3.7,1.6v4.9c1.6-0.8,3.3-1.2,5.1-1.2c1.5,0.2,2.2,0.8,2.2,1.7c-0.5,1.1-0.9,1.7-1.5,1.8l-5.8,0.2v0.7
		c0,1.5,0.1,3.9,0.4,7l8-2v0.3c-4,3.4-9.1,7-15.4,10.8c-0.4,1.1-1.1,1.9-2.2,2.6c-3.2-3.8-4.7-6.1-4.7-6.9l8.8-2.4
		c-0.5-0.9-0.7-1.7-0.7-2.4c0.2-3.8,0.4-6,0.4-6.8c-0.2,0-0.4-0.1-0.4-0.3c-0.3,0.3-2,0.6-5.1,0.9c-1.5-0.2-2.2-0.5-2.2-1v-0.3
		l1.1,0c1.9-0.1,3.9-0.5,6.2-1.3V28l0.4-1.8c-1.1,0.3-3.4,1.1-6.9,2.4c-2.2-1-3.3-1.7-3.3-2C88.1,24.2,94.3,22.3,94.3,21z
		 M115.9,7.1c1.1,0,2.6,0.7,4.4,2.3c-0.7,3.8-1.1,7.5-1.1,11v2.1c0.9,0,2.6-3.4,5.1-10.1v-1.1c1.4,0,2.9,0.7,4.4,2.3v0.7
		c0,1.8-2.8,4.6-8.4,8.5h-0.4v0.4l1.1,0c1.5-0.1,3.9-0.6,7.3-1.7c2.2,0.6,3.3,1.2,3.3,1.6v1.4l-1.5,1.8c-3.8-0.8-7-1.2-9.5-1.1
		l-1.8,0.4v0.7c2-0.1,3.5,0.9,4.4,3c0,1.5-1.9,3.6-5.8,6.2c4.9-0.9,7.8-1.8,8.8-2.8c1.5,0.1,3,0.7,4.4,2v0.4c0,0.5-0.4,0.7-1.1,0.7
		c-0.7,0-1.6-0.1-2.6-0.3l-13.1,1.9V38c0.5,0,1.5,0.6,2.9,1.7c-0.5,0.8-0.7,1.4-0.7,1.8h0.4c2.5-0.6,5-1.2,7.3-2
		c2.4,0.2,3.7,0.6,3.7,1.3v1.1l-1.1,1.5c-0.3,0-1.5,0-3.7-0.2c-4.4,0.3-6.6,0.6-6.6,0.9c0,0.1-0.1,1.7-0.4,4.6h0.4
		c5.2-0.9,10.2-1.9,15-3c1.7,0.5,2.6,1.2,2.6,2c0,0.2-0.5,0.9-1.5,2.2c-2-0.4-4-0.6-5.8-0.5c-7.3,0.4-11,1-11,1.8
		c10,8.4,17.4,12.7,22.3,13v0.7c-0.4,0-3.7,1.2-9.9,3.5c-5-2.1-9.2-7.4-12.4-15.8l-0.4,0c0,5.6-3.5,10.4-10.6,14.5
		c-2.2,0.8-3.6,1.2-4,1.2v-0.7c2.1-0.1,4.5-2.9,7.3-8.4c1-1.8,1.7-4.4,2.2-7.5c-4.3,1.3-7.2,2-8.8,2.1l-2.2-0.6v-0.7
		c6.9-1.7,10.6-2.5,11.3-2.5c0.2-2.4,0.4-4.1,0.4-5.3l-6.9,1.7c-1.2-0.7-2.1-1-2.6-1v-0.7h0.4c6.1-0.8,9.1-1.5,9.1-2.1v-3.9l-6.9,2
		c-1.8-0.4-3-0.6-3.7-0.6v-0.4c0-0.6,3.2-1.3,9.5-2.1v-0.3c-2.9,0.1-4.6-2-5.1-6.2v-2.1c-2.2,0.6-3.6,0.9-4.4,0.9
		c-1.4-0.7-2.3-1-2.9-0.9V28c3.6-0.8,5.8-1.3,6.6-1.3V26c-2.9-1.5-4.4-3.3-4.4-5.5c0-1.5,0.7-2.9,2.2-4.3l0.7,0c0.2,0,0.6,0.3,1.1,1
		l-0.4,2.5v1.8l2.6-1.9h0.4c-0.9,1.2-1.8,2.5-2.6,4c0.5,1.2,0.7,2.1,0.7,2.8l1.5-0.1l0.7-0.4l-0.4-0.7c0.5-1.6,0.7-2.6,0.7-3.2V11.4
		c0.1-0.5,0.3-0.7,0.7-0.7l1.8-0.1l2.6,0.3l-0.4,4.3c0.4,6.4,1,9.5,1.8,9.5l1.1,0V9C114.1,8.6,114.7,8,115.9,7.1z M104.5,28.4v0.4
		c2.7-0.1,4.8,2.4,6.2,7.6c-0.5,0.2-0.8,0.4-1.1,0.4v0.3h0.7c2.9-0.1,4.9-1.8,5.9-5.2c0.7-1.8,1.1-3.5,1.1-5l-0.7-1L104.5,28.4z"/>
	<path id="XMLID_25_" class="st0" d="M155.4,22.1c2.2,0.8,3.3,1.3,3.3,1.6v1.4c0,0.5-0.2,0.7-0.7,0.7l-2.2,0.1
		c-1.3,0-3.4,0.2-6.2,0.6v0.4c0.9,0,2,0.4,3.3,1.3l-0.4,1.8v2.5h0.4c0.5,0,1.7-0.3,3.7-0.9c1.7,0.3,2.6,0.7,2.6,1.4v0.7
		c0,0.3-0.4,0.7-1.1,1.1l-5.5,0.2l0.4,1.8v5.7c4.7-1.6,7.3-2.4,7.7-2.4v0.7c0,0.1-4.6,3.2-13.9,9.3c-0.4,1.1-1.1,1.9-2.2,2.6l-0.7,0
		c0-0.6-1.2-2.6-3.7-6.2c4.6-1.4,7.1-2,7.7-2l-0.4-3.5v-5c-2.1,0.3-3.7,0.5-4.7,0.5l-1.8-0.3v-0.7c3.1-0.6,5.3-0.9,6.6-0.9v-6.7
		l0.4-0.7l-0.7,0c-0.5,0-2.3,0.6-5.5,1.6l-0.4,0c-1.7-0.9-2.6-1.4-2.6-1.7c10.5-2,15.7-3.5,15.7-4.5
		C154.8,22.2,155.2,22.1,155.4,22.1z M163.1,20.4c2.7-0.1,4.5,1.7,5.1,5.5v4.3l0.4,0c4.2-1.6,6.6-2.3,7.3-2.4c0.5,0,0.9,0.7,1.1,2.1
		c-6.1,1.5-9.2,2.4-9.2,2.8c-0.5,3.4-0.7,5.7-0.7,7.1l0.4,0l8-2.4h0.4c0.8,0,1.1,0.4,1.1,1.4l-0.8,1.5c-0.2,0-0.6-0.1-1.1-0.3
		c-4.4,1.1-7,1.7-7.7,1.7c0-0.5-0.2-0.7-0.7-0.7c-1.5,6.5-3.9,11.5-7.3,15.1l-2.6,1.9h-0.4v-0.4c4.4-8.9,6.6-19.1,6.6-30.7v-0.7
		c0-1.3-0.2-3.1-0.7-5.3L163.1,20.4z M177.4,13.2c5.4,1.1,8,2.7,8,4.7c-1,1.8-1.5,3.7-1.5,5.7c0.2,19.4,0.4,30.7,0.4,34
		c-0.2,1.6-1.1,3.1-2.6,4.7l-1.1,0c-1.7,0.1-4-2.8-7-8.6c-0.2,0-0.4-0.1-0.4-0.3v-0.7c3.2-0.1,4.8-0.8,4.8-1.9
		c-0.5-10.9-0.7-21.5-0.7-31.8c-0.2,0-0.4-0.1-0.4-0.3c-0.6,0.2-4.1,1.1-10.6,2.5l-1.5-1.8c6.6-1.7,10.6-3.8,12.1-6.1H177.4z"/>
	<g id="XMLID_17_">
		<path id="XMLID_35_" class="st1" d="M28.2,41.6c2.5-1.1,2.5-4.1,1-4.6c-0.6-0.2-1.5,0-1.6,0.8C19.7,37,24,25.8,29.2,26.8
			c0.3-2.1,3.2-4.9,3.5-5.3C10.2,19.2,13.7,46,28.2,41.6z"/>
		<path id="XMLID_19_" class="st1" d="M38.4,5C20.4,5,5.7,19.6,5.7,37.7s14.7,32.7,32.7,32.7c18.1,0,32.7-14.7,32.7-32.7
			S56.5,5,38.4,5z M57,58.4c7.2-8,9-20.6,0.9-32.3c-7.8-9.1-17.5-9.7-25.4-2c-4.6,4.9-3.4,13.6,4.1,12.7c1.4-0.2,4.5-2.9,3.4-4.5
			c-0.9-1-1.8-1-2.9,0.2c-0.2,0.4-1,0.2-1.2-0.9C34.5,19.9,59.3,25,55.8,46.1c-8.4-9.8-18.1-2.2-18.5,1.4c-1.3,13.8,17.3,4.3,6.4,0
			c10.5-5,12.6,12.9,0.1,17.5c-1.7,0.3-3.5,0.5-5.4,0.5c-15.4,0-27.8-12.5-27.8-27.8S23.1,9.9,38.4,9.9c15.4,0,27.8,12.5,27.8,27.8
			C66.3,45.9,62.7,53.3,57,58.4z"/>
	</g>
</g>
</svg>
